{"scene":0,"scenes":[{"nodes":[0]}],"asset":{"version":"2.0","generator":"https://github.com/mikedh/trimesh"},"accessors":[{"componentType":5125,"type":"SCALAR","bufferView":0,"count":921600,"max":[204799],"min":[0]},{"componentType":5126,"type":"VEC3","byteOffset":0,"bufferView":1,"count":204800,"max":[1200.0,1200.0,50.0],"min":[0.0,0.0,0.0]},{"componentType":5121,"normalized":true,"type":"VEC4","byteOffset":0,"bufferView":2,"count":204800,"max":[255,255,255,255],"min":[0,0,0,255]}],"meshes":[{"name":"geometry_0","extras":{},"primitives":[{"attributes":{"POSITION":1,"COLOR_0":2},"indices":0,"mode":4}]}],"nodes":[{"name":"world","children":[1]},{"name":"geometry_0","mesh":0}],"buffers":[{"uri":"gltf_buffer_0.bin","byteLength":3686400},{"uri":"gltf_buffer_1.bin","byteLength":2457600},{"uri":"gltf_buffer_2.bin","byteLength":819200}],"bufferViews":[{"buffer":0,"byteOffset":0,"byteLength":3686400},{"buffer":1,"byteOffset":0,"byteLength":2457600},{"buffer":2,"byteOffset":0,"byteLength":819200}]}