{"scene":0,"scenes":[{"nodes":[0]}],"asset":{"version":"2.0","generator":"https://github.com/mikedh/trimesh"},"accessors":[{"componentType":5125,"type":"SCALAR","bufferView":0,"count":944784,"max":[209951],"min":[0]},{"componentType":5126,"type":"VEC3","byteOffset":0,"bufferView":1,"count":209952,"max":[150.0,150.0,50.0],"min":[0.0,0.0,0.0]},{"componentType":5121,"normalized":true,"type":"VEC4","byteOffset":0,"bufferView":2,"count":209952,"max":[255,255,255,255],"min":[0,0,0,255]}],"meshes":[{"name":"geometry_0","extras":{},"primitives":[{"attributes":{"POSITION":1,"COLOR_0":2},"indices":0,"mode":4}]}],"nodes":[{"name":"world","children":[1]},{"name":"geometry_0","mesh":0}],"buffers":[{"uri":"gltf_buffer_0.bin","byteLength":3779136},{"uri":"gltf_buffer_1.bin","byteLength":2519424},{"uri":"gltf_buffer_2.bin","byteLength":839808}],"bufferViews":[{"buffer":0,"byteOffset":0,"byteLength":3779136},{"buffer":1,"byteOffset":0,"byteLength":2519424},{"buffer":2,"byteOffset":0,"byteLength":839808}]}